<?xml version="1.0" encoding="UTF-8"?>
<svg id="Calque_2" data-name="Calque 2" xmlns="http://www.w3.org/2000/svg" viewBox="0 0 108.64 93.68">
  <defs>
    <style>
      .cls-1 {
        stroke-width: 5.93px;
      }

      .cls-1, .cls-2, .cls-3 {
        fill: none;
        stroke: #c54d6d;
        stroke-miterlimit: 10;
      }

      .cls-2 {
        stroke-width: 5.98px;
      }

      .cls-4 {
        fill: #c54d6d;
      }

      .cls-3 {
        stroke-width: 7px;
      }
    </style>
  </defs>
  <g id="Calque_1-2" data-name="Calque 1">
    <path class="cls-1" d="m103.77,68.26c.01.17.01.35.01.52,0,5.28-4.1,9.78-9.65,10.48-30.33,3.82-60.66,7.64-91,11.46-.06.01-.11-.03-.11-.09l-.03-20.05c23.15-3.23,46.31-6.47,69.46-9.7,7.07-.89,14.13-1.78,21.2-2.67,5.4.45,9.86,4.64,10.12,10.05Z"/>
    <path class="cls-2" d="m105.65,47.67c0,5.28-4.18,9.78-9.83,10.48-.16.02-.33.04-.49.06-.86-.07-1.74-.05-2.63.07-6.33.87-12.64,1.73-18.97,2.6-23.53,2.91-47.07,5.82-70.61,8.73l-.11-.09-.03-20s.02-.06.05-.06c29.89-4.1,59.77-8.2,89.66-12.29,6.61-.9,12.63,3.73,12.94,9.98.01.17.01.35.01.52Z"/>
    <rect class="cls-4" x="-2.52" y="38.21" width="29.23" height="6.64" rx="3.32" ry="3.32" transform="translate(-23.61 17.1) rotate(-39.39)"/>
    <path class="cls-4" d="m52.84,3.02l-3.29,2.91c-1.37,1.21-1.5,3.31-.29,4.69h0c1.21,1.37,3.31,1.5,4.69.29l3.29-2.91c.09-.06,1.17-.87,1.11-2.28-.05-1.42-1.21-2.15-1.3-2.2-.26-.25-.71-.6-1.36-.8-1.38-.43-2.58.16-2.86.31Z"/>
    <path class="cls-4" d="m104.01,37.65c-16-11.77-31.99-23.53-47.99-35.3-1.48-.41-2.96.08-3.67,1.2-.82,1.29-.46,3.17.92,4.37l47.23,34.55c1.48,1.08,3.47.88,4.44-.45h0c.97-1.33.56-3.29-.92-4.37Z"/>
    <circle class="cls-3" cx="38.71" cy="22.85" r="5.55"/>
    <path class="cls-4" d="m40.29,7.65c-.36-.77-.94-1.87-1.82-3.1-1.22-1.7-2.67-3.68-4.84-4.31-.37-.11-1.16-.34-2.18-.2-.73.1-1.3.35-1.65.54-.12.11-1.68,1.61-1.27,3.45.19.84.71,1.38.85,1.51,1.1,1.07,2.16.45,3.42,1.09,2.19,1.12,2.63,4.85,2.93,7.5.1.83.12,1.52.13,1.96.36.56,1.78,2.55,3.97,3.14,2.32.62,3.26-1.08,3.33-1.21.56-.77,1.24-1.79,1.02-2.02-.24-.24-1.15.74-1.84.46-.89-.36-.52-2.39-1.02-5.23-.27-1.52-.68-2.74-1.02-3.57Z"/>
  </g>
</svg>